<svg width="14.000916" height="9.464233" viewBox="0 0 14.0009 9.46423" fill="none" xmlns="http://www.w3.org/2000/svg" xmlns:xlink="http://www.w3.org/1999/xlink">
	<desc>
			Created with Pixso.
	</desc>
	<defs/>
	<path d="M14 4.73C14 4.59 13.94 4.45 13.85 4.36C13.76 4.26 13.63 4.2 13.5 4.2L1.7 4.2L4.85 0.89C4.9 0.84 4.93 0.79 4.96 0.72C4.98 0.66 5 0.59 5 0.52C5 0.45 4.98 0.38 4.96 0.32C4.93 0.26 4.9 0.2 4.85 0.15C4.8 0.1 4.75 0.06 4.69 0.04C4.63 0.01 4.56 0 4.5 0C4.43 0 4.37 0.01 4.3 0.04C4.24 0.06 4.19 0.1 4.14 0.15L0.14 4.35C0.1 4.4 0.06 4.46 0.03 4.53C0.01 4.59 0 4.66 0 4.73C0 4.8 0.01 4.86 0.03 4.93C0.06 4.99 0.1 5.05 0.14 5.1L4.14 9.31C4.19 9.35 4.24 9.39 4.3 9.42C4.37 9.45 4.43 9.46 4.5 9.46C4.56 9.46 4.63 9.45 4.69 9.42C4.75 9.39 4.8 9.35 4.85 9.31C4.9 9.26 4.93 9.2 4.96 9.13C4.98 9.07 5 9 5 8.93C5 8.86 4.98 8.8 4.96 8.73C4.93 8.67 4.9 8.61 4.85 8.56L1.7 5.25L13.5 5.25C13.63 5.25 13.76 5.2 13.85 5.1C13.94 5 14 4.87 14 4.73Z" fill="#A9A9A9" fill-opacity="1.000000" fill-rule="evenodd"/>
</svg>
