<svg width="24.000000" height="24.000000" viewBox="0 0 24 24" fill="none" xmlns="http://www.w3.org/2000/svg" xmlns:xlink="http://www.w3.org/1999/xlink">
	<desc>
			Created with Pixso.
	</desc>
	<defs>
		<clipPath id="clip1687_114">
			<rect rx="0.000000" width="23.000000" height="23.000000" transform="translate(0.500000 0.500000)" fill="white" fill-opacity="0"/>
		</clipPath>
	</defs>
	<rect rx="0.000000" width="23.000000" height="23.000000" transform="translate(0.500000 0.500000)" fill="#FFFFFF" fill-opacity="0"/>
	<g clip-path="url(#clip1687_114)">
		<path d="M12 1.31C12.85 1.31 13.67 1.65 14.27 2.27C14.87 2.88 15.21 3.72 15.21 4.59L15.21 5.25L8.78 5.25L8.78 4.59C8.78 3.72 9.12 2.88 9.72 2.27C10.33 1.65 11.14 1.31 12 1.31ZM16.5 5.25L16.5 4.59C16.5 3.37 16.02 2.2 15.18 1.34C14.33 0.48 13.19 0 12 0C10.8 0 9.66 0.48 8.81 1.34C7.97 2.2 7.5 3.37 7.5 4.59L7.5 5.25L3 5.25L3 18.37C3 19.07 3.27 19.73 3.75 20.23C4.23 20.72 4.88 21 5.57 21L18.42 21C19.11 21 19.76 20.72 20.24 20.23C20.72 19.73 21 19.07 21 18.37L21 5.25L16.5 5.25ZM4.28 6.56L19.71 6.56L19.71 18.37C19.71 18.72 19.57 19.05 19.33 19.3C19.09 19.54 18.76 19.68 18.42 19.68L5.57 19.68C5.23 19.68 4.9 19.54 4.66 19.3C4.42 19.05 4.28 18.72 4.28 18.37L4.28 6.56Z" fill="#000000" fill-opacity="1.000000" fill-rule="nonzero"/>
	</g>
</svg>
