<svg width="24.499992" height="21.000000" viewBox="0 0 24.5 21" fill="none" xmlns="http://www.w3.org/2000/svg" xmlns:xlink="http://www.w3.org/1999/xlink">
	<desc>
			Created with Pixso.
	</desc>
	<defs/>
	<path id="Vector" d="M0 0.94C0 0.69 0.16 0.45 0.44 0.27C0.73 0.09 1.12 0 1.53 0L22.96 0C23.37 0 23.76 0.09 24.05 0.27C24.33 0.45 24.5 0.69 24.5 0.94C24.5 1.19 24.33 1.43 24.05 1.6C23.76 1.78 23.37 1.88 22.96 1.88L1.53 1.88C1.12 1.88 0.73 1.78 0.44 1.6C0.16 1.43 0 1.19 0 0.94ZM0 20.05C0 19.8 0.16 19.56 0.44 19.39C0.73 19.21 1.12 19.11 1.53 19.11L22.96 19.11C23.37 19.11 23.76 19.21 24.05 19.39C24.33 19.56 24.5 19.8 24.5 20.05C24.5 20.3 24.33 20.54 24.05 20.72C23.76 20.9 23.37 21 22.96 21L1.53 21C1.12 21 0.73 20.9 0.44 20.72C0.16 20.54 0 20.3 0 20.05ZM1.53 9.55C1.12 9.55 0.73 9.65 0.44 9.83C0.16 10.01 0 10.25 0 10.5C0 10.74 0.16 10.98 0.44 11.16C0.73 11.34 1.12 11.44 1.53 11.44L13.78 11.44C14.18 11.44 14.57 11.34 14.86 11.16C15.15 10.98 15.31 10.74 15.31 10.5C15.31 10.25 15.15 10.01 14.86 9.83C14.57 9.65 14.18 9.55 13.78 9.55L1.53 9.55Z" fill="#000000" fill-opacity="1.000000" fill-rule="nonzero"/>
</svg>
