<svg width="21.280334" height="21.280334" viewBox="0 0 21.2803 21.2803" fill="none" xmlns="http://www.w3.org/2000/svg" xmlns:xlink="http://www.w3.org/1999/xlink">
	<desc>
			Created with Pixso.
	</desc>
	<defs/>
	<path d="M20.75 20.75L15.03 15.03M6.04 17.24C5 16.8 4.05 16.17 3.26 15.38C2.46 14.58 1.83 13.64 1.4 12.6C0.97 11.56 0.75 10.44 0.75 9.32C0.75 8.19 0.97 7.08 1.4 6.04C1.83 5 2.46 4.05 3.26 3.26C4.05 2.46 5 1.83 6.04 1.4C7.08 0.97 8.19 0.75 9.32 0.75C11.59 0.75 13.77 1.65 15.38 3.26C16.98 4.86 17.89 7.04 17.89 9.32C17.89 11.59 16.98 13.77 15.38 15.38C13.77 16.98 11.59 17.89 9.32 17.89C8.19 17.89 7.08 17.67 6.04 17.24Z" stroke="#000000" stroke-opacity="1.000000" stroke-width="1.500000"/>
</svg>
